<svg width="24" height="24" viewBox="0 0 24 24" fill="none" xmlns="http://www.w3.org/2000/svg">
<path d="M22.6666 11.1867C22.9144 11.0021 23.0982 10.7446 23.1923 10.4503C23.2863 10.156 23.2859 9.83962 23.191 9.54556C23.0962 9.2515 22.9117 8.9945 22.6635 8.81058C22.4152 8.62667 22.1156 8.52506 21.8066 8.52002L15.8067 8.29335C15.7771 8.29131 15.7489 8.28079 15.7252 8.26305C15.7016 8.24531 15.6835 8.2211 15.6733 8.19335L13.6 2.59335C13.4958 2.30844 13.3066 2.06243 13.058 1.88861C12.8094 1.7148 12.5133 1.62158 12.21 1.62158C11.9066 1.62158 11.6106 1.7148 11.362 1.88861C11.1134 2.06243 10.9242 2.30844 10.82 2.59335L8.75332 8.21335C8.7431 8.2411 8.72508 8.26531 8.70142 8.28305C8.67777 8.30079 8.64949 8.31131 8.61998 8.31335L2.61999 8.54002C2.31106 8.54506 2.01145 8.64667 1.76318 8.83058C1.51491 9.0145 1.33043 9.2715 1.23559 9.56556C1.14076 9.85962 1.14033 10.176 1.23438 10.4703C1.32842 10.7646 1.51221 11.0221 1.75999 11.2067L6.46665 14.9067C6.49021 14.9252 6.50781 14.9503 6.51729 14.9787C6.52677 15.0071 6.52771 15.0377 6.51998 15.0667L4.89999 20.8067C4.81604 21.099 4.82417 21.41 4.92328 21.6975C5.02238 21.9851 5.20765 22.2351 5.45388 22.4135C5.70011 22.592 5.99535 22.6903 6.29942 22.6951C6.6035 22.6998 6.90165 22.6107 7.15332 22.44L12.1267 19.1067C12.1511 19.0898 12.1802 19.0807 12.21 19.0807C12.2398 19.0807 12.2688 19.0898 12.2933 19.1067L17.2666 22.44C17.5149 22.6166 17.812 22.7114 18.1166 22.7114C18.4213 22.7114 18.7184 22.6166 18.9667 22.44C19.2129 22.2632 19.3984 22.0144 19.4975 21.7279C19.5966 21.4414 19.6044 21.1312 19.52 20.84L17.8867 15.08C17.878 15.0511 17.8785 15.0202 17.888 14.9916C17.8976 14.963 17.9157 14.938 17.94 14.92L22.6666 11.1867Z" fill="#FFA800" fill-opacity="0.8"/>
</svg>
