<svg width="563" height="109" viewBox="0 0 563 109" fill="none" xmlns="http://www.w3.org/2000/svg">
<path d="M-96.22 7.59999V28.9H-124.62V107H-145.92V28.9H-174.32V7.59999H-96.22ZM-61.3357 108.846C-67.8677 108.846 -73.8317 107.166 -79.2277 103.805C-84.5764 100.444 -88.86 95.924 -92.0787 90.244C-95.25 84.564 -96.8357 78.2923 -96.8357 71.429C-96.8357 66.2697 -95.9127 61.4417 -94.0667 56.945C-92.2207 52.401 -89.6884 48.425 -86.4697 45.017C-83.2037 41.5617 -79.417 38.8637 -75.1097 36.923C-70.8024 34.9823 -66.211 34.012 -61.3357 34.012C-55.6557 34.012 -50.4727 35.2663 -45.7867 37.775C-41.0534 40.2363 -37.0774 43.597 -33.8587 47.857C-30.5927 52.0697 -28.2734 56.8267 -26.9007 62.128C-25.528 67.4293 -25.386 72.8963 -26.4747 78.529H-73.8317C-73.169 80.1857 -72.2934 81.7003 -71.2047 83.073C-70.0687 84.3983 -68.696 85.4633 -67.0867 86.268C-65.43 87.0727 -63.513 87.4987 -61.3357 87.546C-59.253 87.5933 -57.336 87.1437 -55.5847 86.197C-53.786 85.2503 -52.224 83.9723 -50.8987 82.363L-29.1727 87.404C-32.06 93.6993 -36.3674 98.8587 -42.0947 102.882C-47.822 106.858 -54.2357 108.846 -61.3357 108.846ZM-74.6127 62.909H-47.9877C-48.6504 60.8737 -49.6444 59.075 -50.9697 57.513C-52.295 55.951 -53.857 54.7203 -55.6557 53.821C-57.407 52.9217 -59.3004 52.472 -61.3357 52.472C-63.3237 52.472 -65.217 52.9217 -67.0157 53.821C-68.767 54.7203 -70.3054 55.951 -71.6307 57.513C-72.9087 59.075 -73.9027 60.8737 -74.6127 62.909ZM5.80589 108.278C2.20856 107.947 -1.24677 107.166 -4.56011 105.935C-7.87344 104.704 -10.8318 103.024 -13.4351 100.894C-16.0384 98.764 -18.0974 96.1607 -19.6121 93.084L-1.72011 85.416C-1.24678 85.9367 -0.584109 86.5993 0.267892 87.404C1.11989 88.1613 2.18489 88.8477 3.46289 89.463C4.78823 90.0783 6.37389 90.386 8.21989 90.386C9.45056 90.386 10.6339 90.2677 11.7699 90.031C12.9532 89.747 13.8999 89.2737 14.6099 88.611C15.3672 87.9483 15.7459 87.0253 15.7459 85.842C15.7459 84.5167 15.2489 83.5227 14.2549 82.86C13.3082 82.15 12.1486 81.653 10.7759 81.369C9.40323 81.0377 8.12523 80.7773 6.94189 80.588C2.72922 79.9253 -1.31778 78.6 -5.19911 76.612C-9.03311 74.5767 -12.1808 71.9497 -14.6421 68.731C-17.1034 65.465 -18.3341 61.6547 -18.3341 57.3C-18.3341 52.4247 -17.0798 48.212 -14.5711 44.662C-12.0624 41.112 -8.79644 38.3903 -4.77311 36.497C-0.702441 34.5563 3.67589 33.586 8.36189 33.586C13.8999 33.586 19.0119 34.722 23.6979 36.994C28.4312 39.266 32.3126 42.532 35.3419 46.792L18.5859 56.732C18.0179 56.022 17.3079 55.312 16.4559 54.602C15.6512 53.8447 14.7046 53.2057 13.6159 52.685C12.5746 52.117 11.4386 51.762 10.2079 51.62C8.55123 51.478 7.06023 51.549 5.73489 51.833C4.45689 52.0697 3.43923 52.5903 2.68189 53.395C1.92456 54.1523 1.54589 55.2647 1.54589 56.732C1.54589 58.1047 2.20856 59.0987 3.53389 59.714C4.85923 60.3293 6.35022 60.779 8.00689 61.063C9.66356 61.347 11.0126 61.6547 12.0539 61.986C16.1246 63.3113 19.9586 65.039 23.5559 67.169C27.1532 69.299 30.0406 71.8787 32.2179 74.908C34.4426 77.9373 35.4839 81.4873 35.3419 85.558C35.3419 90.2913 33.9219 94.4567 31.0819 98.054C28.2419 101.651 24.5736 104.373 20.0769 106.219C15.5802 108.065 10.8232 108.751 5.80589 108.278ZM86.3942 57.3H74.3242V107H53.0242V57.3H43.7942V36H53.0242V13.706H74.3242V36H86.3942V57.3ZM97.6821 36H118.982V107H97.6821V36ZM108.474 28.616C105.397 28.616 102.818 27.5983 100.735 25.563C98.6524 23.5277 97.6111 20.9953 97.6111 17.966C97.6111 14.984 98.6524 12.4753 100.735 10.44C102.818 8.35733 105.374 7.316 108.403 7.316C111.385 7.316 113.894 8.35733 115.929 10.44C118.012 12.4753 119.053 14.984 119.053 17.966C119.053 20.9953 118.035 23.5277 116 25.563C114.012 27.5983 111.503 28.616 108.474 28.616ZM135.124 107V36H156.424V40.473C158.79 38.4377 161.488 36.852 164.518 35.716C167.547 34.58 170.742 34.012 174.103 34.012C178.836 34.012 183.191 35.1007 187.167 37.278C191.143 39.408 194.361 42.2717 196.823 45.869C199.331 42.2717 202.55 39.408 206.479 37.278C210.455 35.1007 214.786 34.012 219.472 34.012C224.584 34.012 229.222 35.2663 233.388 37.775C237.553 40.2363 240.866 43.5497 243.328 47.715C245.836 51.8803 247.091 56.519 247.091 61.631V107H225.791V67.595C225.791 65.3703 225.246 63.3587 224.158 61.56C223.069 59.7613 221.625 58.3177 219.827 57.229C218.028 56.1403 216.016 55.596 213.792 55.596C211.567 55.596 209.532 56.1403 207.686 57.229C205.887 58.3177 204.443 59.7613 203.355 61.56C202.266 63.3587 201.722 65.3703 201.722 67.595V107H180.422V67.595C180.422 65.3703 179.877 63.3587 178.789 61.56C177.747 59.7613 176.304 58.3177 174.458 57.229C172.659 56.1403 170.647 55.596 168.423 55.596C166.245 55.596 164.234 56.1403 162.388 57.229C160.589 58.3177 159.145 59.7613 158.057 61.56C156.968 63.3587 156.424 65.3703 156.424 67.595V107H135.124ZM291.168 108.846C284.636 108.846 278.672 107.166 273.276 103.805C267.928 100.444 263.644 95.9477 260.425 90.315C257.254 84.635 255.668 78.3633 255.668 71.5C255.668 66.2933 256.591 61.4417 258.437 56.945C260.283 52.401 262.816 48.425 266.034 45.017C269.3 41.5617 273.087 38.8637 277.394 36.923C281.702 34.9823 286.293 34.012 291.168 34.012C297.7 34.012 303.641 35.6923 308.989 39.053C314.385 42.4137 318.669 46.934 321.84 52.614C325.059 58.294 326.668 64.5893 326.668 71.5C326.668 76.6593 325.745 81.4873 323.899 85.984C322.053 90.4807 319.497 94.4567 316.231 97.912C313.013 101.32 309.25 103.994 304.942 105.935C300.682 107.876 296.091 108.846 291.168 108.846ZM291.168 87.546C293.866 87.546 296.28 86.8123 298.41 85.345C300.588 83.8777 302.292 81.937 303.522 79.523C304.753 77.0617 305.368 74.3873 305.368 71.5C305.368 68.518 304.706 65.7963 303.38 63.335C302.102 60.8737 300.375 58.933 298.197 57.513C296.067 56.0457 293.724 55.312 291.168 55.312C288.518 55.312 286.104 56.0693 283.926 57.584C281.796 59.0513 280.092 61.0157 278.814 63.477C277.584 65.9383 276.968 68.6127 276.968 71.5C276.968 74.5293 277.607 77.251 278.885 79.665C280.211 82.079 281.938 83.996 284.068 85.416C286.246 86.836 288.612 87.546 291.168 87.546ZM403.976 61.631V107H382.676V67.595C382.676 65.3703 382.132 63.3587 381.043 61.56C379.954 59.714 378.511 58.2703 376.712 57.229C374.913 56.1403 372.902 55.596 370.677 55.596C368.452 55.596 366.417 56.1403 364.571 57.229C362.772 58.2703 361.329 59.714 360.24 61.56C359.199 63.3587 358.678 65.3703 358.678 67.595V107H337.378L337.307 36H358.607L358.678 40.473C361.045 38.4377 363.743 36.852 366.772 35.716C369.801 34.58 372.996 34.012 376.357 34.012C381.469 34.012 386.108 35.2663 390.273 37.775C394.438 40.2363 397.752 43.5497 400.213 47.715C402.722 51.8803 403.976 56.519 403.976 61.631ZM418.153 36H439.453V107H418.153V36ZM428.945 28.616C425.868 28.616 423.288 27.5983 421.206 25.563C419.123 23.5277 418.082 20.9953 418.082 17.966C418.082 14.984 419.123 12.4753 421.206 10.44C423.288 8.35733 425.844 7.316 428.874 7.316C431.856 7.316 434.364 8.35733 436.4 10.44C438.482 12.4753 439.524 14.984 439.524 17.966C439.524 20.9953 438.506 23.5277 436.471 25.563C434.483 27.5983 431.974 28.616 428.945 28.616ZM505.324 36H526.624V107H505.253L504.259 100.61C502.508 103.071 500.283 105.059 497.585 106.574C494.935 108.089 491.834 108.846 488.284 108.846C482.983 108.846 478.013 107.852 473.374 105.864C468.783 103.876 464.736 101.131 461.233 97.628C457.731 94.078 454.985 90.0073 452.997 85.416C451.057 80.7773 450.086 75.8073 450.086 70.506C450.086 65.4413 451.009 60.708 452.855 56.306C454.701 51.904 457.281 48.0463 460.594 44.733C463.955 41.3723 467.813 38.7453 472.167 36.852C476.569 34.9587 481.279 34.012 486.296 34.012C490.367 34.012 494.059 34.864 497.372 36.568C500.733 38.2247 503.715 40.3073 506.318 42.816L505.324 36ZM487.716 88.398C490.651 88.398 493.325 87.6407 495.739 86.126C498.153 84.6113 500.07 82.576 501.49 80.02C502.91 77.464 503.62 74.624 503.62 71.5C503.62 68.376 502.91 65.536 501.49 62.98C500.07 60.424 498.153 58.3887 495.739 56.874C493.325 55.3593 490.651 54.602 487.716 54.602C484.782 54.602 482.107 55.3593 479.693 56.874C477.327 58.3887 475.433 60.424 474.013 62.98C472.641 65.536 471.954 68.376 471.954 71.5C471.954 74.624 472.664 77.464 474.084 80.02C475.504 82.576 477.398 84.6113 479.764 86.126C482.178 87.6407 484.829 88.398 487.716 88.398ZM540.877 107V0.499992H562.177V107H540.877Z" fill="white" fill-opacity="0.11"/>
</svg>
